<svg width="25" height="14" viewBox="0 0 25 14" fill="none" xmlns="http://www.w3.org/2000/svg">
<path d="M24.0129 12.5616C24.0129 12.4658 23.9174 12.4658 23.9174 12.3699C23.5355 11.6027 22.676 10.6438 21.5302 9.58905C20.9572 9.10959 20.6707 8.72603 20.4798 8.53425C20.1933 8.15068 20.1933 7.86302 20.2888 7.47946C20.3843 7.19179 20.7662 6.71232 21.4347 5.84931C21.8166 5.36986 22.0076 5.08219 22.2941 4.79452C23.7264 2.87671 24.3949 1.63013 24.2039 1.05479L24.1084 0.958905C24.0129 0.863014 23.9174 0.767127 23.7264 0.767127C23.5354 0.671236 23.249 0.671236 22.9625 0.767127H19.3339C19.2384 0.767127 19.2384 0.767127 19.0474 0.767127C18.9519 0.767127 18.8564 0.767127 18.8564 0.767127H18.761H18.6655L18.57 0.863008C18.4745 0.958899 18.4745 0.958896 18.4745 1.05479C18.0925 2.10958 17.6151 2.9726 17.1376 3.9315C16.8511 4.41095 16.5647 4.89041 16.2782 5.27398C15.9917 5.65754 15.8007 5.9452 15.6098 6.13698C15.4188 6.32877 15.2278 6.42466 15.1323 6.61644C15.0368 6.71233 14.8458 6.80822 14.8458 6.71233C14.7504 6.71233 14.6549 6.71233 14.6549 6.61644C14.5594 6.52055 14.4639 6.42465 14.3684 6.32876C14.2729 6.23287 14.2729 6.04109 14.1774 5.84931C14.1774 5.65753 14.1774 5.46575 14.1774 5.36986C14.1774 5.27397 14.1774 4.9863 14.1774 4.79452C14.1774 4.50685 14.1774 4.31507 14.1774 4.21917C14.1774 3.9315 14.1774 3.54795 14.1774 3.16439C14.1774 2.78083 14.1774 2.49315 14.1774 2.30137C14.1774 2.10958 14.1774 1.82192 14.1774 1.63014C14.1774 1.34246 14.1774 1.15068 14.1774 1.05479C14.1774 0.958896 14.0819 0.767121 14.0819 0.67123C13.9864 0.57534 13.8909 0.479446 13.7954 0.383556C13.7 0.287666 13.509 0.287668 13.4135 0.191778C12.936 0.0958875 12.3631 0 11.6947 0C10.1668 0 9.11644 0.0958934 8.73448 0.287674C8.5435 0.383565 8.35252 0.479449 8.25703 0.67123C8.06605 0.863011 8.06604 0.958905 8.16153 0.958905C8.63898 1.0548 9.02095 1.24657 9.21193 1.53424L9.30743 1.72603C9.40292 1.82192 9.4029 2.01369 9.49839 2.30137C9.59388 2.58904 9.59388 2.87671 9.59388 3.26027C9.59388 3.83561 9.59388 4.41096 9.59388 4.79452C9.59388 5.27398 9.49839 5.56164 9.49839 5.84931C9.49839 6.13698 9.40292 6.32877 9.30743 6.42466C9.21194 6.61644 9.21192 6.71233 9.11643 6.71233C9.11643 6.71233 9.11643 6.80821 9.02094 6.80821C8.92545 6.80821 8.82996 6.90411 8.63898 6.90411C8.54349 6.90411 8.35252 6.80822 8.25703 6.71233C8.06605 6.61644 7.87507 6.42466 7.77958 6.23288C7.5886 6.0411 7.39761 5.75342 7.20663 5.36986C7.01565 4.9863 6.72917 4.60274 6.53819 4.0274L6.34722 3.64384C6.25173 3.45206 6.06075 3.06849 5.86977 2.58904C5.67879 2.10959 5.48781 1.72603 5.29682 1.24658C5.20133 1.0548 5.10586 0.958899 5.01037 0.863008H4.91487C4.91487 0.863008 4.81937 0.767127 4.72388 0.767127C4.62839 0.767127 4.53291 0.67123 4.43742 0.67123H0.999765C0.617804 0.67123 0.426826 0.767118 0.331336 0.863008L0.23584 0.958905C0.23584 0.958905 0.23584 1.05479 0.23584 1.15068C0.23584 1.24657 0.235846 1.34246 0.331336 1.53424C0.808787 2.68492 1.38173 3.83562 1.95467 4.9863C2.52761 6.0411 3.10056 7 3.48252 7.67124C3.95997 8.34247 4.34192 9.0137 4.81937 9.58905C5.29682 10.1644 5.58329 10.5479 5.67878 10.7397C5.86976 10.9315 5.96524 11.0274 6.06073 11.1233L6.34722 11.411C6.5382 11.6027 6.82467 11.8904 7.20663 12.1781C7.58859 12.4658 8.06604 12.7534 8.54349 13.0411C9.02094 13.3288 9.59389 13.5206 10.1668 13.7123C10.8353 13.9041 11.4082 14 11.9811 13.9041H13.4135C13.7 13.9041 13.891 13.8082 14.0819 13.6164L14.1774 13.5205C14.1774 13.4247 14.2729 13.4247 14.2729 13.3288C14.2729 13.2329 14.2729 13.137 14.2729 12.9452C14.2729 12.5617 14.2729 12.274 14.3684 11.9863C14.4639 11.6986 14.4639 11.5069 14.5594 11.3151C14.6549 11.1233 14.7504 11.0274 14.8458 10.9315C14.9413 10.8356 15.0368 10.7397 15.0368 10.7397H15.1323C15.3233 10.6438 15.6098 10.7397 15.8007 10.9315C16.0872 11.1233 16.3737 11.411 16.5647 11.6986C16.7556 11.9863 17.0421 12.274 17.4241 12.6575C17.8061 13.0411 18.0925 13.3288 18.2835 13.4247L18.57 13.6164C18.7609 13.7123 18.9519 13.8082 19.2384 13.9041C19.5249 14 19.7158 14 19.9068 14L23.1535 13.9041C23.44 13.9041 23.7264 13.8082 23.9174 13.7123C24.1084 13.6164 24.2039 13.5206 24.2039 13.3288C24.2039 13.2329 24.2039 13.0411 24.2039 12.9452C24.0129 12.7534 24.0129 12.6575 24.0129 12.5616Z" fill="white"/>
</svg>
