<svg width="25" height="21" viewBox="0 0 25 21" fill="none" xmlns="http://www.w3.org/2000/svg">
<path d="M0.438498 10.0798L6.18612 12.1436L8.4267 19.0854C8.52412 19.5545 9.10863 19.6483 9.49829 19.3668L12.713 16.834C13.0053 16.5526 13.4924 16.5526 13.8821 16.834L19.6297 20.8678C20.0193 21.1492 20.6038 20.9616 20.7012 20.4925L24.9876 0.79282C25.085 0.323779 24.5979 -0.145258 24.1108 0.0423587L0.438498 8.86033C-0.146003 9.04795 -0.146003 9.89222 0.438498 10.0798ZM8.13446 11.1117L19.4348 4.45134C19.6296 4.35753 19.8245 4.63896 19.6297 4.73277L10.375 13.0817C10.0828 13.3631 9.79053 13.7384 9.79053 14.2074L9.49829 16.4588C9.49829 16.7402 9.0112 16.834 8.91379 16.4588L7.74477 12.3312C7.45252 11.8622 7.64738 11.2993 8.13446 11.1117Z" fill="white"/>
</svg>
