<svg width="23" height="23" viewBox="0 0 23 23" fill="none" xmlns="http://www.w3.org/2000/svg">
<path d="M22.2532 13.2175C22.3279 12.6201 22.4026 12.0974 22.4026 11.5C22.4026 5.52597 17.5487 0.597403 11.5 0.597403C10.9026 0.597403 10.3799 0.672078 9.78247 0.746753C8.81169 0.224026 7.76623 0 6.72078 0C2.98701 0 0 2.98701 0 6.72078C0 7.76623 0.224026 8.81169 0.746753 9.78247C0.672078 10.3799 0.597403 10.9026 0.597403 11.5C0.597403 17.474 5.4513 22.4026 11.5 22.4026C12.0974 22.4026 12.6201 22.3279 13.2175 22.2532C14.1883 22.7013 15.2338 23 16.2792 23C20.013 23 23 20.013 23 16.2792C23 15.2338 22.7013 14.1883 22.2532 13.2175ZM16.0552 15.4578C15.8312 15.9058 15.5325 16.2792 15.0844 16.5779C14.6364 16.8766 14.1883 17.1007 13.5909 17.25C12.9935 17.3994 12.3214 17.474 11.5747 17.474C10.0065 17.474 8.73701 17.1006 7.84091 16.4286C7.31818 15.9805 6.87013 15.4578 6.6461 14.7857C6.3474 14.1883 6.87013 13.4416 7.61688 13.4416H7.84091C8.28896 13.4416 8.73701 13.7403 8.88636 14.1136C9.03571 14.487 9.25974 14.7857 9.55844 15.0097C10.0065 15.3831 10.6786 15.5325 11.5 15.5325C12.2468 15.5325 12.8442 15.3831 13.2922 15.1591C13.7403 14.9351 13.9643 14.487 13.9643 14.039C13.9643 13.8149 13.8896 13.6656 13.8149 13.5162C13.7403 13.3669 13.5162 13.2175 13.3669 13.1429C13.1429 12.9935 12.9188 12.9188 12.5455 12.8442C12.2468 12.7695 11.8734 12.6201 11.4253 12.5455L10.9773 12.3961C10.4545 12.2468 9.85714 12.0974 9.40909 11.9481C8.88636 11.7987 8.43831 11.5747 8.06494 11.3506C7.69156 11.1266 7.39286 10.8279 7.16883 10.3799C6.94481 10.0065 6.87013 9.48377 6.87013 8.88636C6.87013 8.28896 7.01948 7.76623 7.24351 7.31818C7.46753 6.87013 7.84091 6.49675 8.21429 6.27273C8.66234 5.97403 9.11039 5.75 9.70779 5.67532C10.2305 5.52597 10.8279 5.4513 11.5 5.4513C12.2468 5.4513 12.8442 5.52597 13.4416 5.67532C14.039 5.82468 14.487 6.0487 14.9351 6.42208C15.3831 6.72078 15.6818 7.09416 15.9058 7.61688C16.2792 8.28896 15.7565 9.18507 14.9351 9.18507H14.711C14.263 9.18507 13.8896 8.96104 13.6656 8.58766C13.5162 8.36364 13.3669 8.13961 13.1429 7.91559C12.7695 7.61688 12.1721 7.46753 11.5 7.46753C10.8279 7.46753 10.3052 7.61688 9.93182 7.84091C9.55844 8.06494 9.40909 8.43831 9.40909 8.81169C9.40909 9.03571 9.48377 9.18507 9.55844 9.33442C9.63312 9.48377 9.78247 9.63312 10.0065 9.70779C10.2305 9.78247 10.4545 9.93182 10.7532 10.0065C11.0519 10.0812 11.4253 10.1558 11.8734 10.3052C12.3214 10.3799 12.6948 10.5292 13.1429 10.6039C13.5162 10.6786 13.8896 10.8279 14.263 10.9026C14.6364 11.0519 14.9351 11.2013 15.2338 11.3506C15.5325 11.5 15.7565 11.724 15.9805 11.9481C16.2045 12.1721 16.3539 12.4708 16.4286 12.7695C16.5779 13.0682 16.5779 13.5162 16.5779 13.9643C16.4286 14.487 16.2792 15.0097 16.0552 15.4578Z" fill="white"/>
</svg>
