<svg width="23" height="22" viewBox="0 0 23 22" fill="none" xmlns="http://www.w3.org/2000/svg">
<path d="M19.5768 0H3.83829C2.06136 0 0.70752 1.35385 0.70752 3.13077V18.8692C0.70752 20.6462 2.06136 22 3.83829 22H19.5768C21.3537 22 22.7075 20.6462 22.7075 18.8692V3.13077C22.7075 1.35385 21.3537 0 19.5768 0ZM11.7075 17.6C15.346 17.6 18.3075 14.7231 18.3075 11.2538C18.3075 10.6615 18.2229 9.98462 18.0537 9.47692H19.9152V18.4462C19.9152 18.8692 19.5767 19.2923 19.0691 19.2923H4.34598C3.92291 19.2923 3.49983 18.9538 3.49983 18.4462V9.39231H5.44599C5.27676 9.98461 5.19214 10.5769 5.19214 11.1692C5.10752 14.7231 8.06906 17.6 11.7075 17.6ZM11.7075 15.0615C9.33829 15.0615 7.47675 13.2 7.47675 10.9154C7.47675 8.63077 9.33829 6.76923 11.7075 6.76923C14.0768 6.76923 15.9383 8.63077 15.9383 10.9154C15.9383 13.2846 14.0768 15.0615 11.7075 15.0615ZM19.8306 6.00769C19.8306 6.51538 19.4075 6.93846 18.8998 6.93846H16.5306C16.0229 6.93846 15.5998 6.51538 15.5998 6.00769V3.72308C15.5998 3.21538 16.0229 2.79231 16.5306 2.79231H18.8998C19.4075 2.79231 19.8306 3.21538 19.8306 3.72308V6.00769Z" fill="white"/>
</svg>
