<svg width="63" height="56" viewBox="0 0 63 56" fill="none" xmlns="http://www.w3.org/2000/svg">
<path d="M22 2.5H40.4049C44.7224 2.5 48.9608 3.65868 52.6779 5.85513L53.402 6.28302C56.3583 8.02992 58.5479 10.8265 59.5346 14.1155V14.1155C60.4723 17.2412 60.1207 20.6121 58.558 23.4769L57.7436 24.9701C56.0158 28.1377 52.9016 30.3109 49.3324 30.8397L42.6538 31.8291C41.8878 31.9425 41.1397 32.1544 40.4279 32.4595V32.4595C36.8317 34.0007 34.5 37.5368 34.5 41.4494V44.5V53H22V2.5Z" stroke="#3F1400" stroke-opacity="0.9" stroke-width="5"/>
<line x1="18" y1="0.5" y2="0.5" stroke="#3F1400" stroke-opacity="0.9"/>
<line x1="18" y1="6" x2="7" y2="6" stroke="#3F1400" stroke-opacity="0.9" stroke-width="4"/>
<line x1="18" y1="11.5" x2="7" y2="11.5" stroke="#3F1400" stroke-opacity="0.9" stroke-width="4"/>
<line x1="18" y1="22.5" x2="7" y2="22.5" stroke="#3F1400" stroke-opacity="0.9" stroke-width="4"/>
<line x1="18" y1="28" x2="7" y2="28" stroke="#3F1400" stroke-opacity="0.9" stroke-width="4"/>
<line x1="18" y1="33.5" x2="7" y2="33.5" stroke="#3F1400" stroke-opacity="0.9" stroke-width="4"/>
<line x1="18" y1="44.5" x2="7" y2="44.5" stroke="#3F1400" stroke-opacity="0.9" stroke-width="4"/>
<line x1="18" y1="50" x2="7" y2="50" stroke="#3F1400" stroke-opacity="0.9" stroke-width="4"/>
<line x1="18" y1="6" y2="6" stroke="#3F1400" stroke-opacity="0.9"/>
<line x1="18" y1="11.5" y2="11.5" stroke="#3F1400" stroke-opacity="0.9"/>
<line x1="18" y1="17" y2="17" stroke="#3F1400" stroke-opacity="0.9"/>
<line x1="18" y1="22.5" y2="22.5" stroke="#3F1400" stroke-opacity="0.9"/>
<line x1="18" y1="28" y2="28" stroke="#3F1400" stroke-opacity="0.9"/>
<line x1="18" y1="33.5" y2="33.5" stroke="#3F1400" stroke-opacity="0.9"/>
<line x1="18" y1="39" y2="39" stroke="#3F1400" stroke-opacity="0.9"/>
<line x1="18" y1="44.5" y2="44.5" stroke="#3F1400" stroke-opacity="0.9"/>
<line x1="18" y1="50" y2="50" stroke="#3F1400" stroke-opacity="0.9"/>
<line x1="18" y1="55" y2="55" stroke="#3F1400" stroke-opacity="0.9"/>
<path d="M47 18C47 21.4709 44.5 23 37 23C33.134 23 33 20.7614 33 18C33 15.2386 33.134 13 37 13C44.5 13 47 14.5291 47 18Z" fill="#3F1400" fill-opacity="0.9"/>
</svg>
