<svg width="290" height="158" viewBox="0 0 290 158" fill="none" xmlns="http://www.w3.org/2000/svg">
<path d="M50 21.4503L279 0V5.89474L50 28V21.4503Z" fill="#212121"/>
<path d="M203 21L279 13V19.1053L203 27V21Z" fill="#212121"/>
<line x1="51.25" y1="22" x2="51.25" y2="122" stroke="#212121" stroke-width="2.5"/>
<ellipse cx="30.6179" cy="126.719" rx="19.1241" ry="24.2522" transform="rotate(44.1983 30.6179 126.719)" fill="#212121"/>
<path d="M41.2532 128.218C41.3279 127.62 41.4026 127.097 41.4026 126.5C41.4026 120.526 36.5487 115.597 30.5 115.597C29.9026 115.597 29.3799 115.672 28.7825 115.747C27.8117 115.224 26.7662 115 25.7208 115C21.987 115 19 117.987 19 121.721C19 122.766 19.224 123.812 19.7468 124.782C19.6721 125.38 19.5974 125.903 19.5974 126.5C19.5974 132.474 24.4513 137.403 30.5 137.403C31.0974 137.403 31.6201 137.328 32.2175 137.253C33.1883 137.701 34.2338 138 35.2792 138C39.013 138 42 135.013 42 131.279C42 130.234 41.7013 129.188 41.2532 128.218ZM35.0552 130.458C34.8312 130.906 34.5325 131.279 34.0844 131.578C33.6364 131.877 33.1883 132.101 32.5909 132.25C31.9935 132.399 31.3214 132.474 30.5747 132.474C29.0065 132.474 27.737 132.101 26.8409 131.429C26.3182 130.981 25.8701 130.458 25.6461 129.786C25.3474 129.188 25.8701 128.442 26.6169 128.442H26.8409C27.289 128.442 27.737 128.74 27.8864 129.114C28.0357 129.487 28.2597 129.786 28.5584 130.01C29.0065 130.383 29.6786 130.532 30.5 130.532C31.2468 130.532 31.8442 130.383 32.2922 130.159C32.7403 129.935 32.9643 129.487 32.9643 129.039C32.9643 128.815 32.8896 128.666 32.8149 128.516C32.7403 128.367 32.5162 128.218 32.3669 128.143C32.1429 127.994 31.9188 127.919 31.5455 127.844C31.2468 127.769 30.8734 127.62 30.4253 127.545L29.9773 127.396C29.4545 127.247 28.8571 127.097 28.4091 126.948C27.8864 126.799 27.4383 126.575 27.0649 126.351C26.6916 126.127 26.3929 125.828 26.1688 125.38C25.9448 125.006 25.8701 124.484 25.8701 123.886C25.8701 123.289 26.0195 122.766 26.2435 122.318C26.4675 121.87 26.8409 121.497 27.2143 121.273C27.6623 120.974 28.1104 120.75 28.7078 120.675C29.2305 120.526 29.8279 120.451 30.5 120.451C31.2468 120.451 31.8442 120.526 32.4416 120.675C33.039 120.825 33.487 121.049 33.9351 121.422C34.3831 121.721 34.6818 122.094 34.9058 122.617C35.2792 123.289 34.7565 124.185 33.9351 124.185H33.711C33.263 124.185 32.8896 123.961 32.6656 123.588C32.5162 123.364 32.3669 123.14 32.1429 122.916C31.7695 122.617 31.1721 122.468 30.5 122.468C29.8279 122.468 29.3052 122.617 28.9318 122.841C28.5584 123.065 28.4091 123.438 28.4091 123.812C28.4091 124.036 28.4838 124.185 28.5584 124.334C28.6331 124.484 28.7825 124.633 29.0065 124.708C29.2305 124.782 29.4545 124.932 29.7532 125.006C30.0519 125.081 30.4253 125.156 30.8734 125.305C31.3214 125.38 31.6948 125.529 32.1429 125.604C32.5162 125.679 32.8896 125.828 33.263 125.903C33.6364 126.052 33.9351 126.201 34.2338 126.351C34.5325 126.5 34.7565 126.724 34.9805 126.948C35.2045 127.172 35.3539 127.471 35.4286 127.769C35.5779 128.068 35.5779 128.516 35.5779 128.964C35.4286 129.487 35.2792 130.01 35.0552 130.458Z" fill="#212121"/>
<line x1="127.486" y1="15" x2="127.486" y2="112" stroke="#212121" stroke-width="2.5"/>
<ellipse cx="106.854" cy="118.719" rx="19.1241" ry="24.2522" transform="rotate(44.1983 106.854 118.719)" fill="#212121"/>
<path d="M119.013 124.562C119.013 124.466 118.917 124.466 118.917 124.37C118.535 123.603 117.676 122.644 116.53 121.589C115.957 121.11 115.671 120.726 115.48 120.534C115.193 120.151 115.193 119.863 115.289 119.479C115.384 119.192 115.766 118.712 116.435 117.849C116.817 117.37 117.008 117.082 117.294 116.795C118.726 114.877 119.395 113.63 119.204 113.055L119.108 112.959C119.013 112.863 118.917 112.767 118.726 112.767C118.535 112.671 118.249 112.671 117.963 112.767H114.334C114.238 112.767 114.238 112.767 114.047 112.767C113.952 112.767 113.856 112.767 113.856 112.767H113.761H113.665L113.57 112.863C113.474 112.959 113.474 112.959 113.474 113.055C113.093 114.11 112.615 114.973 112.138 115.932C111.851 116.411 111.565 116.89 111.278 117.274C110.992 117.658 110.801 117.945 110.61 118.137C110.419 118.329 110.228 118.425 110.132 118.616C110.037 118.712 109.846 118.808 109.846 118.712C109.75 118.712 109.655 118.712 109.655 118.616C109.559 118.521 109.464 118.425 109.368 118.329C109.273 118.233 109.273 118.041 109.177 117.849C109.177 117.658 109.177 117.466 109.177 117.37C109.177 117.274 109.177 116.986 109.177 116.795C109.177 116.507 109.177 116.315 109.177 116.219C109.177 115.932 109.177 115.548 109.177 115.164C109.177 114.781 109.177 114.493 109.177 114.301C109.177 114.11 109.177 113.822 109.177 113.63C109.177 113.342 109.177 113.151 109.177 113.055C109.177 112.959 109.082 112.767 109.082 112.671C108.986 112.575 108.891 112.479 108.795 112.384C108.7 112.288 108.509 112.288 108.413 112.192C107.936 112.096 107.363 112 106.695 112C105.167 112 104.116 112.096 103.734 112.288C103.543 112.384 103.353 112.479 103.257 112.671C103.066 112.863 103.066 112.959 103.162 112.959C103.639 113.055 104.021 113.247 104.212 113.534L104.307 113.726C104.403 113.822 104.403 114.014 104.498 114.301C104.594 114.589 104.594 114.877 104.594 115.26C104.594 115.836 104.594 116.411 104.594 116.795C104.594 117.274 104.498 117.562 104.498 117.849C104.498 118.137 104.403 118.329 104.307 118.425C104.212 118.616 104.212 118.712 104.116 118.712C104.116 118.712 104.116 118.808 104.021 118.808C103.925 118.808 103.83 118.904 103.639 118.904C103.543 118.904 103.353 118.808 103.257 118.712C103.066 118.616 102.875 118.425 102.78 118.233C102.589 118.041 102.398 117.753 102.207 117.37C102.016 116.986 101.729 116.603 101.538 116.027L101.347 115.644C101.252 115.452 101.061 115.068 100.87 114.589C100.679 114.11 100.488 113.726 100.297 113.247C100.201 113.055 100.106 112.959 100.01 112.863H99.9149C99.9149 112.863 99.8194 112.767 99.7239 112.767C99.6284 112.767 99.5329 112.671 99.4374 112.671H95.9998C95.6178 112.671 95.4268 112.767 95.3313 112.863L95.2358 112.959C95.2358 112.959 95.2358 113.055 95.2358 113.151C95.2358 113.247 95.2358 113.342 95.3313 113.534C95.8088 114.685 96.3817 115.836 96.9547 116.986C97.5276 118.041 98.1006 119 98.4825 119.671C98.96 120.342 99.3419 121.014 99.8194 121.589C100.297 122.164 100.583 122.548 100.679 122.74C100.87 122.932 100.965 123.027 101.061 123.123L101.347 123.411C101.538 123.603 101.825 123.89 102.207 124.178C102.589 124.466 103.066 124.753 103.543 125.041C104.021 125.329 104.594 125.521 105.167 125.712C105.835 125.904 106.408 126 106.981 125.904H108.413C108.7 125.904 108.891 125.808 109.082 125.616L109.177 125.521C109.177 125.425 109.273 125.425 109.273 125.329C109.273 125.233 109.273 125.137 109.273 124.945C109.273 124.562 109.273 124.274 109.368 123.986C109.464 123.699 109.464 123.507 109.559 123.315C109.655 123.123 109.75 123.027 109.846 122.932C109.941 122.836 110.037 122.74 110.037 122.74H110.132C110.323 122.644 110.61 122.74 110.801 122.932C111.087 123.123 111.374 123.411 111.565 123.699C111.756 123.986 112.042 124.274 112.424 124.658C112.806 125.041 113.093 125.329 113.284 125.425L113.57 125.616C113.761 125.712 113.952 125.808 114.238 125.904C114.525 126 114.716 126 114.907 126L118.154 125.904C118.44 125.904 118.726 125.808 118.917 125.712C119.108 125.616 119.204 125.521 119.204 125.329C119.204 125.233 119.204 125.041 119.204 124.945C119.013 124.753 119.013 124.658 119.013 124.562Z" fill="#212121"/>
<path d="M204 8V104" stroke="#212121" stroke-width="2.5"/>
<ellipse cx="183.618" cy="110.719" rx="19.1241" ry="24.2522" transform="rotate(44.1983 183.618 110.719)" fill="#212121"/>
<path d="M171.438 110.08L177.186 112.144L179.427 119.085C179.524 119.554 180.109 119.648 180.498 119.367L183.713 116.834C184.005 116.553 184.492 116.553 184.882 116.834L190.63 120.868C191.019 121.149 191.604 120.962 191.701 120.493L195.988 100.793C196.085 100.324 195.598 99.8547 195.111 100.042L171.438 108.86C170.854 109.048 170.854 109.892 171.438 110.08ZM179.134 111.112L190.435 104.451C190.63 104.358 190.824 104.639 190.63 104.733L181.375 113.082C181.083 113.363 180.791 113.738 180.791 114.207L180.498 116.459C180.498 116.74 180.011 116.834 179.914 116.459L178.745 112.331C178.453 111.862 178.647 111.299 179.134 111.112Z" fill="#212121"/>
<line x1="279.958" x2="279.958" y2="96" stroke="#212121" stroke-width="2.5"/>
<ellipse cx="259.326" cy="99.7194" rx="19.1241" ry="24.2522" transform="rotate(44.1983 259.326 99.7194)" fill="#212121"/>
<path d="M267.577 89H251.838C250.061 89 248.708 90.3538 248.708 92.1308V107.869C248.708 109.646 250.061 111 251.838 111H267.577C269.354 111 270.708 109.646 270.708 107.869V92.1308C270.708 90.3538 269.354 89 267.577 89ZM259.708 106.6C263.346 106.6 266.308 103.723 266.308 100.254C266.308 99.6615 266.223 98.9846 266.054 98.4769H267.915V107.446C267.915 107.869 267.577 108.292 267.069 108.292H252.346C251.923 108.292 251.5 107.954 251.5 107.446V98.3923H253.446C253.277 98.9846 253.192 99.5769 253.192 100.169C253.108 103.723 256.069 106.6 259.708 106.6ZM259.708 104.062C257.338 104.062 255.477 102.2 255.477 99.9154C255.477 97.6308 257.338 95.7692 259.708 95.7692C262.077 95.7692 263.938 97.6308 263.938 99.9154C263.938 102.285 262.077 104.062 259.708 104.062ZM267.831 95.0077C267.831 95.5154 267.408 95.9385 266.9 95.9385H264.531C264.023 95.9385 263.6 95.5154 263.6 95.0077V92.7231C263.6 92.2154 264.023 91.7923 264.531 91.7923H266.9C267.408 91.7923 267.831 92.2154 267.831 92.7231V95.0077Z" fill="#212121"/>
</svg>
